<?xml version="1.0" encoding="utf-8"?>
<!-- Generator: Adobe Illustrator 27.5.0, SVG Export Plug-In . SVG Version: 6.00 Build 0)  -->
<svg version="1.1" xmlns="http://www.w3.org/2000/svg" xmlns:xlink="http://www.w3.org/1999/xlink" x="0px" y="0px"
	 viewBox="0 0 500 500" style="enable-background:new 0 0 500 500;" xml:space="preserve">
<g id="Shape_1_">
	<g id="Shape">
		<ellipse id="path--inject-63_1_" style="fill:#F5F5F5;" cx="250" cy="416.24" rx="193.89" ry="11.32"/>
	</g>
</g>
<g id="Background_Complete">
	<g>
		<g>
			<rect y="382.4" style="fill:#EBEBEB;" width="500" height="0.25"/>
			<rect x="52.46" y="391.92" style="fill:#EBEBEB;" width="21.21" height="0.25"/>
			<rect x="171.14" y="389.21" style="fill:#EBEBEB;" width="84.97" height="0.25"/>
			<rect x="67.67" y="401.21" style="fill:#EBEBEB;" width="38.11" height="0.25"/>
			<rect x="406.71" y="399.53" style="fill:#EBEBEB;" width="43.19" height="0.25"/>
			<rect x="391.47" y="399.53" style="fill:#EBEBEB;" width="11.97" height="0.25"/>
			<rect x="347.89" y="395.31" style="fill:#EBEBEB;" width="23" height="0.25"/>
			<rect x="287.89" y="395.31" style="fill:#EBEBEB;" width="48.44" height="0.25"/>
			<path style="fill:#EBEBEB;" d="M237,337.8H43.91c-3.15-0.005-5.7-2.56-5.7-5.71V60.66c0.027-3.13,2.57-5.655,5.7-5.66H237
				c3.153,0,5.71,2.556,5.71,5.71l0,0v271.38C242.71,335.243,240.153,337.8,237,337.8z M43.91,55.2
				c-3.012,0.006-5.45,2.448-5.45,5.46v271.43c0,3.012,2.438,5.454,5.45,5.46H237c3.013-0.005,5.454-2.447,5.46-5.46V60.66
				c-0.006-3.013-2.447-5.454-5.46-5.46H43.91z"/>
			<path style="fill:#EBEBEB;" d="M453.31,337.8h-193.1c-3.151-0.005-5.704-2.559-5.71-5.71V60.66
				c0.033-3.132,2.578-5.655,5.71-5.66h193.1c3.126,0.011,5.663,2.534,5.69,5.66v271.43C459,335.236,456.456,337.789,453.31,337.8z
				 M260.21,55.2c-3.013,0.006-5.454,2.447-5.46,5.46v271.43c0.005,3.013,2.447,5.454,5.46,5.46h193.1
				c3.013-0.005,5.454-2.447,5.46-5.46V60.66c-0.005-3.013-2.447-5.454-5.46-5.46H260.21z"/>
		</g>
		<g>
			<g id="background-complete--inject-457">
				<rect x="311.009" y="282.07" style="fill:#F0F0F0;" width="4.263" height="100.523"/>
				<rect x="148.583" y="284.939" style="fill:#E0E0E0;" width="118.991" height="21.714"/>
				<path style="fill:#E0E0E0;" d="M198.199,382.667h-51.017c-0.407,0-0.738-0.33-0.738-0.738c0-0.407,0.33-0.737,0.738-0.737
					h51.017c7.376,0,8.357-2.154,8.357-10.695V262.812c0-0.407,0.33-0.737,0.738-0.737c0.407,0,0.738,0.33,0.738,0.737v107.685
					C208.031,379.628,206.615,382.667,198.199,382.667z"/>
				<rect x="153.156" y="282.461" style="fill:#F0F0F0;" width="160.951" height="7.538"/>
				<rect x="102.64" y="282.07" style="fill:#F5F5F5;" width="51.681" height="100.523"/>
				<rect x="150.051" y="282.07" style="fill:#F0F0F0;" width="4.263" height="100.523"/>
				<rect x="64.859" y="169.217" style="fill:#FAFAFA;" width="52.865" height="213.375"/>
				<rect x="67.76" y="175.451" style="fill:#F5F5F5;" width="47.062" height="47.062"/>
				<path style="fill:#E0E0E0;" d="M80.868,174.818h20.872c0,2.695-2.185,4.879-4.879,4.879l0,0H85.783
					c-2.695,0.019-4.895-2.149-4.914-4.844C80.868,174.841,80.868,174.83,80.868,174.818z"/>
				<rect x="67.751" y="226.733" style="fill:#F5F5F5;" width="47.062" height="47.062"/>
				<rect x="67.76" y="278.015" style="fill:#F5F5F5;" width="47.062" height="47.062"/>
				<rect x="67.76" y="329.306" style="fill:#F5F5F5;" width="47.062" height="47.062"/>
				<path style="fill:#E0E0E0;" d="M80.868,226.109h20.872c-0.005,2.693-2.187,4.875-4.879,4.88H85.783
					c-2.7,0.014-4.9-2.162-4.914-4.862C80.868,226.12,80.868,226.115,80.868,226.109z"/>
				<path style="fill:#E0E0E0;" d="M80.868,277.391h20.872c0,2.695-2.185,4.879-4.879,4.879H85.783
					c-2.695,0.019-4.895-2.149-4.914-4.844C80.868,277.414,80.868,277.403,80.868,277.391z"/>
				<path style="fill:#E0E0E0;" d="M80.868,328.673h20.872c0,2.695-2.185,4.879-4.879,4.879H85.783
					c-2.695,0.019-4.895-2.149-4.914-4.844C80.868,328.697,80.868,328.685,80.868,328.673z"/>
				<rect x="38.457" y="169.217" style="fill:#F0F0F0;" width="26.402" height="213.375"/>
				<polygon style="fill:#F0F0F0;" points="201.223,282.07 190.078,282.07 192.785,260.371 203.937,260.371 				"/>
				<polygon style="fill:#F5F5F5;" points="203.694,282.07 192.542,282.07 195.256,260.371 206.401,260.371 				"/>
				<polygon style="fill:#F0F0F0;" points="227.606,282.07 219.544,282.07 218.003,279.614 226.057,279.614 				"/>
				<polygon style="fill:#FAFAFA;" points="270.797,282.07 222.007,282.07 220.466,279.614 264.218,279.614 				"/>
				<path style="fill:#F0F0F0;" d="M165.871,275.845h3.526c3.438,0,6.225,2.787,6.225,6.225l0,0h-15.99
					c0-3.438,2.787-6.225,6.225-6.225C165.862,275.845,165.867,275.845,165.871,275.845z"/>
				<polygon style="fill:#F0F0F0;" points="205.043,271.22 193.899,271.22 195.256,260.371 206.401,260.371 				"/>
				<path style="fill:#F0F0F0;" d="M164.057,268.624h78.919c0.603,0.001,1.092-0.487,1.093-1.09c0-0.047-0.003-0.095-0.009-0.142
					l-6.077-48.62c-0.067-0.548-0.532-0.959-1.084-0.959h-78.897c-0.603,0-1.092,0.488-1.092,1.091c0,0.045,0.003,0.089,0.008,0.133
					l6.078,48.628C163.061,268.205,163.514,268.614,164.057,268.624z"/>
				<path style="fill:#F5F5F5;" d="M165.252,268.624h78.868c0.603,0.001,1.092-0.487,1.093-1.09c0-0.047-0.003-0.095-0.009-0.142
					l-6.077-48.62c-0.07-0.546-0.534-0.956-1.084-0.959h-78.868c-0.603,0-1.092,0.488-1.092,1.091c0,0.045,0.003,0.089,0.008,0.133
					l6.077,48.628C164.235,268.213,164.7,268.625,165.252,268.624z"/>
				<path style="fill:#E0E0E0;" d="M242.659,265.932l-5.687-45.508c-0.022-0.154-0.155-0.267-0.31-0.265h-75.726
					c-0.163-0.006-0.3,0.121-0.306,0.284c-0.001,0.018,0,0.037,0.003,0.055l5.687,45.515c0.019,0.152,0.149,0.267,0.302,0.266
					h75.733c0.171-0.003,0.308-0.144,0.305-0.315C242.661,265.953,242.661,265.943,242.659,265.932z"/>
				<path style="fill:#FAFAFA;" d="M213.835,282.07h-18.159l0,0v-0.229c0-0.998,0.809-1.807,1.807-1.807l0,0h14.545
					c0.998,0,1.807,0.809,1.807,1.807l0,0V282.07L213.835,282.07z"/>
				<path style="fill:#F0F0F0;" d="M197.793,282.07h-12.317l0,0v-0.229c0-0.998,0.809-1.807,1.807-1.807l0,0h8.703
					c0.998,0,1.807,0.809,1.807,1.807V282.07L197.793,282.07z"/>
				<path style="fill:#E0E0E0;" d="M87.198,145.119v-0.044c0.202-0.677,0.396-1.363,0.563-2.048
					c0.604,0.961,1.629,1.578,2.761,1.662h0.237c1.468-0.141,2.875-1.565,3.763-3.807c0.035-0.081,0.035-0.173,0-0.255
					c-0.043-0.08-0.115-0.14-0.202-0.167c-2.131-0.54-4.392-0.147-6.216,1.081c0.132-0.651,0.246-1.31,0.343-1.961
					c0.232,0.045,0.467,0.068,0.703,0.07c2.391,0,4.15-2.136,4.238-2.242c0.109-0.137,0.087-0.336-0.05-0.445
					c-0.025-0.02-0.053-0.036-0.082-0.048c-1.124-0.558-2.432-0.609-3.596-0.141c-0.614,0.312-1.111,0.815-1.415,1.433
					c-0.913-2.805-3.32-4.862-6.233-5.328c-0.09-0.021-0.185,0.002-0.255,0.062c-0.075,0.053-0.12,0.137-0.123,0.229
					c-0.123,2.172-0.053,4.836,1.574,6.102c0.68,0.502,1.512,0.756,2.356,0.721c0.757-0.018,1.507-0.136,2.233-0.352
					c-0.232,1.571-0.57,3.125-1.011,4.651c-1.591-2.168-3.848-3.755-6.427-4.519c-0.169-0.039-0.34,0.061-0.387,0.229
					c-0.492,1.873-0.237,3.394,0.73,4.396c0.994,0.893,2.307,1.343,3.64,1.248c0.709-0.005,1.415-0.078,2.11-0.22
					c-0.405,1.284-0.879,2.541-1.328,3.736c-0.976-0.879-3.851-3.059-6.981-2.145c-0.084,0.028-0.154,0.088-0.193,0.167
					c-0.035,0.081-0.035,0.174,0,0.255c0.879,2.075,1.82,3.227,3.033,3.622c0.323,0.107,0.662,0.16,1.002,0.158
					c0.929-0.039,1.834-0.305,2.638-0.774c-0.668,1.591-1.38,3.077-2.057,4.396c-1.637-1.669-4.055-2.31-6.304-1.671
					c-0.156,0.031-0.263,0.176-0.246,0.334c0.158,1.353,1.026,2.519,2.277,3.059c0.464,0.199,0.964,0.301,1.468,0.299
					c0.7-0.009,1.388-0.187,2.005-0.519c-0.686,1.275-1.319,2.339-1.811,3.147h-5.978c-0.95-1.627-2.049-3.649-3.121-5.917
					c0.5,0.149,1.017,0.229,1.539,0.237c2.306,0.029,4.199-1.818,4.228-4.124c0.005-0.367-0.039-0.734-0.131-1.09
					c-0.042-0.149-0.189-0.243-0.343-0.22c-2.478,0.242-4.682,1.675-5.908,3.842c-0.703-1.583-1.389-3.262-1.987-4.994
					c0.761,0.433,1.613,0.68,2.488,0.721c0.347,0.004,0.692-0.052,1.02-0.167c1.758-0.58,2.769-2.699,3.631-4.897
					c0.039-0.08,0.039-0.174,0-0.255c-0.041-0.082-0.114-0.142-0.202-0.167c-3.517-0.985-6.409,2.4-7.306,3.613
					c-0.469-1.464-0.859-2.952-1.169-4.457c0.739,0.145,1.489,0.221,2.242,0.229c1.512,0.111,3.002-0.412,4.115-1.442
					c1.064-1.125,1.319-2.813,0.747-4.871c-0.041-0.165-0.208-0.265-0.373-0.223c-0.005,0.001-0.009,0.002-0.013,0.004
					c-2.806,0.876-5.248,2.645-6.954,5.038l-0.132-0.8c-0.009-0.069-0.04-0.134-0.088-0.185c-0.293-1.052-1.018-1.93-1.996-2.418
					c-1.283-0.495-2.716-0.418-3.939,0.211c-0.094,0.041-0.165,0.121-0.193,0.22c-0.022,0.097,0.004,0.198,0.07,0.273
					c0.088,0.114,2.022,2.4,4.625,2.4c0.28-0.004,0.56-0.033,0.835-0.088c0.114,0.747,0.255,1.495,0.413,2.233
					c-2.028-1.335-4.53-1.738-6.875-1.108c-0.087,0.027-0.16,0.087-0.202,0.167c-0.035,0.084-0.035,0.179,0,0.264
					c1.011,2.444,2.576,3.991,4.194,4.123h0.22c0.818,0,1.925-0.378,3.051-1.881c0.443,1.709,0.977,3.394,1.6,5.046
					c-1.521-0.721-4.941-1.96-7.385-0.07c-0.138,0.1-0.169,0.292-0.069,0.43c0.002,0.003,0.005,0.007,0.008,0.01
					c1.582,2.154,3.042,3.2,4.475,3.2l0,0c1.187,0,2.321-0.747,3.455-2.224c0.651,1.618,1.354,3.165,2.049,4.589
					c-1.521-0.941-3.191-0.791-5.161,0.448c-0.093,0.056-0.149,0.156-0.149,0.264c-0.007,0.105,0.043,0.206,0.132,0.264
					c1.173,0.845,2.558,1.348,4,1.451c0.744,0.015,1.474-0.207,2.084-0.633c0.563,1.081,1.117,2.075,1.627,2.963h-2.717v1.547h0.985
					l0.818,8.194h12.036l0.809-8.194h0.993v-1.547H80.64c0.598-0.993,1.363-2.321,2.18-3.877c0.024-0.031,0.042-0.067,0.053-0.105
					c0.211-0.396,0.413-0.8,0.624-1.222c0.726,1.098,1.938,1.776,3.253,1.82c0.135,0.009,0.27,0.009,0.404,0
					c1.46-0.166,2.704-1.137,3.218-2.514c0.054-0.143-0.006-0.305-0.141-0.378c-1.87-1.057-4.134-1.148-6.084-0.246
					c0.457-0.958,0.879-1.987,1.336-3.051c0.034-0.04,0.056-0.089,0.062-0.141c0.123-0.299,0.237-0.598,0.36-0.879
					c1.046,1.319,2.084,1.969,3.165,1.969l0,0c1.31,0,2.638-0.967,4.062-2.963c0.103-0.139,0.076-0.335-0.062-0.44
					c-2.242-1.679-5.275-0.527-6.699,0.141c0.29-0.791,0.554-1.591,0.8-2.409L87.198,145.119z"/>
				<path style="fill:#E6E6E6;" d="M286.913,332.328h33.058c6.31,0.005,11.462-5.042,11.587-11.351l1.239-60.525
					c0.094-4.663-3.611-8.519-8.274-8.613c-0.057-0.001-0.114-0.002-0.171-0.002h-20.726c-4.293-0.001-7.902,3.221-8.386,7.486
					L286.913,332.328z"/>
				<path style="fill:#E6E6E6;" d="M304.954,332.328h-35.226c-0.913,0-1.652-0.74-1.652-1.652v-0.155
					c0-2.501,2.028-4.529,4.529-4.529l0,0h32.35l0,0V332.328L304.954,332.328z"/>
				<path style="fill:#E6E6E6;" d="M302.173,383.419c-0.354,0.008-0.663-0.237-0.738-0.583l-10.326-49.771h-17.997l-10.326,49.771
					c-0.083,0.407-0.481,0.67-0.889,0.586c-0.407-0.083-0.67-0.481-0.586-0.889l10.459-50.353c0.071-0.349,0.382-0.597,0.738-0.59
					h19.177c0.356-0.007,0.666,0.241,0.737,0.59l10.451,50.353c0.082,0.397-0.172,0.786-0.568,0.87
					C302.263,383.414,302.218,383.419,302.173,383.419z"/>
				<path style="fill:#E6E6E6;" d="M290.955,383.419c-0.049,0.007-0.099,0.007-0.147,0c-0.399-0.081-0.657-0.471-0.575-0.87
					c0,0,0,0,0,0l10.459-50.354c0.071-0.349,0.382-0.597,0.738-0.59h19.177c0.356-0.007,0.666,0.241,0.737,0.59l10.451,50.354
					c0.083,0.407-0.179,0.805-0.586,0.889c-0.407,0.084-0.805-0.179-0.889-0.586l-10.326-49.771h-18.011l-10.326,49.771
					C291.579,383.178,291.291,383.411,290.955,383.419z"/>
			</g>
			<g>
				<path style="fill:#E6E6E6;" d="M415.288,368.81h2.062c0-4.236,0-15.007,0.224-39.678c0.36-44.722,1.081-47.443,1.081-47.443
					l-4.907,20.647C410.63,325.194,414.63,348.189,415.288,368.81z"/>
				<path style="fill:#E6E6E6;" d="M406.158,294.684c-10.795-10.671-31.877-12.1-53.418-12.994
					c-8.447-0.348,23.603,15.889,39.666,28.051c12.423,9.441,20.088,11.665,24.224,21.852
					C417.115,318.374,415.462,303.876,406.158,294.684z"/>
				<path style="fill:#E0E0E0;" d="M418.021,271.478c7.317-13.901,25.728-26.995,46.387-31.951c8.1-1.95-18.796,25.665-29.02,43.48
					c-7.938,13.839-18.473,30.088-20.1,41.765C412.816,301.628,410.704,285.379,418.021,271.478z"/>
				<path style="fill:#EBEBEB;" d="M417.115,382.19L417.115,382.19c-7.189-0.008-13.126-5.618-13.541-12.795l-1.242-12.261h29.479
					l-1.242,12.261C430.15,376.535,424.268,382.13,417.115,382.19z"/>
				<polygon style="fill:#F0F0F0;" points="433.736,361.854 400.431,361.854 399.474,348.189 434.693,348.189 				"/>
			</g>
			<g>
				<rect x="276.587" y="75.778" style="fill:#E0E0E0;" width="169.543" height="121.219"/>
				<rect x="276.587" y="75.778" style="fill:#F0F0F0;" width="165.799" height="121.219"/>
				<rect x="282.134" y="80.912" style="fill:#FAFAFA;" width="154.05" height="108.156"/>
				<g>
					<rect x="270.852" y="70.493" style="fill:#E0E0E0;" width="177.702" height="2.118"/>
					<circle style="fill:#E0E0E0;" cx="269.426" cy="71.586" r="2.964"/>
					<circle style="fill:#E0E0E0;" cx="448.553" cy="71.586" r="2.964"/>
				</g>
				<polygon style="opacity:0.7;fill:#FFFFFF;" points="420.892,80.912 372.045,189.068 352.8,189.068 401.637,80.912 				"/>
				<polygon style="opacity:0.7;fill:#FFFFFF;" points="383.927,80.912 335.09,189.068 300.728,189.068 349.575,80.912 				"/>
				<g>
					<rect x="276.587" y="124.445" style="fill:#E0E0E0;" width="169.543" height="3.679"/>
					<rect x="276.587" y="119.042" style="fill:#E0E0E0;" width="169.543" height="3.679"/>
					<rect x="276.587" y="113.638" style="fill:#E0E0E0;" width="169.543" height="3.679"/>
					<rect x="276.587" y="108.234" style="fill:#E0E0E0;" width="169.543" height="3.679"/>
					<rect x="276.587" y="102.831" style="fill:#E0E0E0;" width="169.543" height="3.679"/>
					<rect x="276.587" y="97.427" style="fill:#E0E0E0;" width="169.543" height="3.679"/>
					<rect x="276.587" y="92.024" style="fill:#E0E0E0;" width="169.543" height="3.679"/>
					<rect x="276.587" y="86.62" style="fill:#E0E0E0;" width="169.543" height="3.679"/>
					<rect x="276.587" y="81.216" style="fill:#E0E0E0;" width="169.543" height="3.679"/>
					<rect x="276.587" y="75.813" style="fill:#E0E0E0;" width="169.543" height="3.679"/>
				</g>
			</g>
			<g>
				<rect x="185.139" y="74.79" style="fill:#F0F0F0;" width="30.989" height="30.989"/>
				<rect x="182.723" y="74.79" style="fill:#F5F5F5;" width="30.989" height="30.989"/>
				<rect x="185.109" y="77.176" style="fill:#FAFAFA;" width="26.218" height="26.218"/>
				<rect x="185.109" y="77.176" style="fill:#F0F0F0;" width="0.736" height="26.218"/>
				<path style="fill:#FFFFFF;" d="M208.184,84.183v12.066c-2.113,0-3.825,1.713-3.825,3.825h-11.161
					c0-2.113-1.713-3.825-3.825-3.825V84.183c2.113,0,3.825-1.713,3.825-3.825h11.161C204.359,82.47,206.071,84.183,208.184,84.183z
					"/>
			</g>
			<g>
				<rect x="55.881" y="74.541" style="fill:#E6E6E6;" width="104.022" height="52.968"/>
				<rect x="51.658" y="74.541" style="fill:#F0F0F0;" width="104.022" height="52.968"/>
				<rect x="55.578" y="79.156" style="fill:#F5F5F5;" width="96.36" height="42.51"/>
				<polygon style="opacity:0.7;fill:#FFFFFF;" points="129.138,79.156 110.488,121.666 97.498,121.666 117.208,79.156 				"/>
				<polygon style="opacity:0.7;fill:#FFFFFF;" points="112.748,79.156 92.818,121.666 87.028,121.666 107.258,79.156 				"/>
			</g>
		</g>
	</g>
</g>
<g id="Background_Simple" style="display:none;">
	<g style="display:inline;">
		<path style="fill:#407BFF;" d="M80.615,141.515c-3.047,7.894-5.426,16.058-7.154,24.312
			c-12.071,57.669,8.593,116.95,53.759,154.747c89.015,74.493,286.892,86.529,302.077-64.76c1.043-10.388,0.817-20.902-0.8-31.22
			c-3.67-23.415-15.693-40.38-37.95-49.145c-32.863-12.942-71.884-7.131-102.382-24.945c-32.335-18.888-46.445-58.502-78.97-76.965
			c-29.458-16.721-72.013-2.06-95.395,18.723C98.839,105.559,87.847,122.777,80.615,141.515z"/>
		<path style="opacity:0.9;fill:#FFFFFF;" d="M80.615,141.515c-3.047,7.894-5.426,16.058-7.154,24.312
			c-12.071,57.669,8.593,116.95,53.759,154.747c89.015,74.493,286.892,86.529,302.077-64.76c1.043-10.388,0.817-20.902-0.8-31.22
			c-3.67-23.415-15.693-40.38-37.95-49.145c-32.863-12.942-71.884-7.131-102.382-24.945c-32.335-18.888-46.445-58.502-78.97-76.965
			c-29.458-16.721-72.013-2.06-95.395,18.723C98.839,105.559,87.847,122.777,80.615,141.515z"/>
	</g>
</g>
<g id="Character_1">
	<g>
		<path style="fill:#263238;" d="M130.255,117.729c0,0-6.357-1.415-7.252-9.617c-0.831-7.612,2.556-9.126,2.556-9.126
			s-4.326-7.775,2.901-12.248s18.303,1.491,22.563-0.533c4.26-2.023,9.008-0.883,7.644,5.112c-1.363,5.995-7.644,7.562-7.644,7.562
			l-14.591-2.556c0,0,6.284,16.401,2.556,19.49C135.26,118.901,130.255,117.729,130.255,117.729z"/>
		<path style="fill:#263238;" d="M155.678,93.563c0,0,3.154,12.24,0,14.342c-3.154,2.102-3.83-12.54-3.83-12.54L155.678,93.563z"/>
		<path style="fill:#263238;" d="M132.475,212.115l-3.137,6.691l-5.548-0.793c-5.231,0.834-7.409-2.136-7.409-2.136
			c-1.143-1.035-2.244-2.044-3.287-3.02c-18.397-17.221-21.493-26.006-19.916-32.932c1.669-7.317,12.749-28.843,16.094-33.858
			c3.346-5.014,5.857-6.374,5.857-6.374c6.057-2.611,10.654-0.734,12.765,5.749c1.71,5.24-2.178,10.705-5.165,14.659
			c-3.663,4.848-7.1,9.87-10.179,15.102c-1.018,1.719-1.994,3.463-2.937,5.223c-0.409,0.768-2.67,4.063-2.428,4.731
			c1.544,4.288,9.286,16.47,12.015,20.692c0.592,0.918,0.943,1.46,0.943,1.46C130.172,208.769,132.475,212.115,132.475,212.115z"/>
		<path style="fill:#263238;" d="M236.934,141.354l-5.832,3.329c0,0-1.26,2.478-3.337,5.949
			c-4.731,7.91-13.683,21.009-21.593,21.876c-10.387,0.876-21.309-3.938-32.281-11.297s-7.106-24.202-7.106-24.202
			s6.555,1.841,16.692,9.342c10.129,7.501,18.739,12.081,21.242,13.049c0,0,8.602-2.77,17.905-13.592l0.008-0.008l2.636-8.477
			l8.752-3.054L236.934,141.354z"/>
		<path style="fill:#263238;" d="M114.757,165.463c0.379,0.569,10.243,48.94,10.243,48.94h46.058c0,0,0.416-29.591,1.175-36.61
			c0.759-7.018,5.418-36.041-5.448-40.783c0,0-11.055-2.631-19.212-2.738c-8.157-0.107-14.65,1.251-14.65,1.251
			s-14.137,0.749-17.8,4.171C111.462,143.117,114.757,165.463,114.757,165.463z"/>
		<path style="fill:#407BFF;" d="M171.058,213.753c0,0-0.779,69.807-2.866,86.505s-7.508,88.875-7.508,88.875l-13.713-3.296
			c0,0-1.044-52.53-2.435-78.621c-1.392-26.091-1.109-56.999-1.109-56.999s-10.023,65-13.85,71.262
			c-3.827,6.262-19.481,42.442-29.57,60.532l-11.132-9.741c0,0,18.09-57.749,21.221-67.489c3.131-9.741,5.806-81.957,14.905-90.378
			L171.058,213.753z"/>
		<polygon style="fill:#CE7A63;" points="98.308,379.884 95.53,384.131 91.775,389.871 84.116,385.892 87.262,379.551 
			89.598,374.853 		"/>
		<path style="fill:#CE7A63;" d="M236.934,141.354l-5.832,3.329c0,0-1.26,2.478-3.337,5.949l-5.14-4.823l0.008-0.008l2.636-8.477
			l8.752-3.054L236.934,141.354z"/>
		<path style="opacity:0.3;" d="M171.055,213.75c0,0-0.776,69.81-2.862,86.505c-2.086,16.703-7.509,88.879-7.509,88.879
			l-13.512-2.276c0,0-1.247-53.547-2.632-79.646c-0.392-7.442-1.076-13.107-1.227-17.454c-0.15-4.389-0.125-12.014-0.042-19.49
			v-0.008c0.125-10.838,0.367-21.376,0.367-21.376l-0.3,1.919c-0.042,0.275-0.092,0.584-0.15,0.918l-0.058,0.4v0.05
			c-2.128,13.458-10.246,63.886-13.55,69.309c-3.83,6.258-19.482,42.443-29.569,60.532l-11.138-9.745
			c0,0,18.097-57.745,21.226-67.482c3.129-9.745,5.807-81.957,14.901-90.384L171.055,213.75z"/>
		<path style="opacity:0.2;" d="M143.338,250.803c-0.042,0.275-0.092,0.584-0.15,0.918L143.338,250.803z"/>
		<path style="opacity:0.2;" d="M145.532,236.786c0,0-0.267,19.966-2.261,33.474c0.125-10.838,0.367-21.376,0.367-21.376
			L145.532,236.786z"/>
		<path style="fill:#CE7A63;" d="M149.479,132.36c1.585,1.46,4.505,2.311,4.505,2.311s-2.336,2.803-9.803,2.244
			c-2.912-0.217-6.608,1.377-11.255-1.393c0,0,1.944-11.08,1.093-17.646c0,0-7.668-3.287-5.84-8.277
			c1.66-4.539,6.833,0.667,7.768,1.66c-0.918-1.168-6.433-8.535-2.411-14.568c4.38-6.575,11.439-6.933,11.439-6.933l6.333,1.702
			l2.553,5.965c0,0,3.412,4.622,3.654,13.875c0.242,9.253-5.114,12.532-9.011,13.633c0,0-0.109,1.035-0.117,2.344
			C148.377,129.123,148.552,131.509,149.479,132.36z"/>
		<path style="fill:#BA4D3C;" d="M151.494,112.056l-0.954-7.471l4.212,5.881C154.753,110.466,153.719,111.897,151.494,112.056z"/>
		<path style="fill:none;stroke:#263238;stroke-linecap:round;stroke-linejoin:round;stroke-miterlimit:10;" d="M144.182,112.533
			c0,0,1.908,2.623,5.087,1.749"/>
		<path style="fill:none;stroke:#263238;stroke-linecap:round;stroke-linejoin:round;stroke-miterlimit:10;" d="M142.274,102.201
			c0,0,1.192-2.623,3.656-2.225"/>
		<path style="fill:none;stroke:#263238;stroke-linecap:round;stroke-linejoin:round;stroke-miterlimit:10;" d="M153.083,99.022
			c0,0,2.305-0.397,3.974,1.431"/>
		<path style="fill:#263238;" d="M146.75,105.603c0,0.725-0.367,1.312-0.82,1.312c-0.453,0-0.82-0.587-0.82-1.312
			c0-0.725,0.367-1.312,0.82-1.312C146.383,104.291,146.75,104.879,146.75,105.603z"/>
		<path style="fill:#263238;" d="M155.07,105.057c0,0.725-0.367,1.312-0.82,1.312c-0.453,0-0.82-0.587-0.82-1.312
			c0-0.725,0.367-1.312,0.82-1.312C154.703,103.745,155.07,104.332,155.07,105.057z"/>
		<g>
			<polygon style="fill:#407BFF;" points="141.219,140.317 147.644,139.344 149.214,145.546 146.216,151.114 144.503,151.114 
				141.219,146.117 			"/>
			<polygon style="fill:#407BFF;" points="144.503,151.114 141.219,180.454 147.218,186.227 151.552,180.317 146.216,151.114 			"/>
			<polygon style="opacity:0.3;" points="141.219,140.317 147.644,139.344 149.214,145.546 146.216,151.114 144.503,151.114 
				141.219,146.117 			"/>
			<polygon style="opacity:0.3;" points="144.503,151.114 141.219,180.454 147.218,186.227 151.552,180.317 146.216,151.114 			"/>
		</g>
		<path style="fill:#FFFFFF;" d="M144.182,136.919l3.253,8.565c0,0,8.397-4.193,9.623-11.214l-6.019-2.058
			C151.039,132.213,148.611,134.545,144.182,136.919z"/>
		<path style="fill:#FFFFFF;" d="M133.498,131.651c0,0,5.815,3.056,10.684,5.269l-1.908,8.565c0,0-9.625-5.764-12.856-10.265
			L133.498,131.651z"/>
		<path style="opacity:0.2;" d="M148.502,124.934c0,0-0.109,1.035-0.117,2.344c-2.319-0.484-4.747-1.827-4.747-1.827
			C146.467,125.802,148.502,124.934,148.502,124.934z"/>
		<path style="fill:#263238;" d="M135.945,111.259c0,0,1.896-5.698-1.1-12.994c0,0,11.413,3.274,11.448-7.111
			c0,0-15.226,2.426-16.008,7.83C129.503,104.389,134.701,109.791,135.945,111.259z"/>
		<path style="fill:#263238;" d="M146.168,92.667c0,0,4.363,6.192,8.1,4.909v-8.993h-12.993l-6.861,4.102l4.751,4.891l3.542-2.908
			L146.168,92.667z"/>
		<polygon style="fill:#CE7A63;" points="159.766,400.384 150.012,399.884 149.771,392.483 149.595,387.085 157.488,386.292 
			159.048,386.359 159.391,393.042 		"/>
		<polygon style="opacity:0.2;" points="159.391,393.042 149.771,392.483 149.595,387.085 157.488,386.292 159.048,386.359 		"/>
		<polygon style="fill:#263238;" points="144.289,390.629 163.062,390.169 164.12,384.047 144.727,384.047 		"/>
		<path style="fill:none;stroke:#407BFF;stroke-miterlimit:10;" d="M161.872,400.788c0,0,3.265-9.637,5.814-8.682
			C170.235,393.062,161.872,400.788,161.872,400.788z"/>
		<path style="fill:none;stroke:#407BFF;stroke-miterlimit:10;" d="M162.43,400.788c0,0,4.938-4.699,6.929-2.867
			S162.43,400.788,162.43,400.788z"/>
		<polygon style="opacity:0.2;" points="98.308,379.884 95.53,384.131 87.262,379.551 89.598,374.853 		"/>
		<polygon style="fill:#263238;" points="85.418,376.039 99.757,383.634 103.143,379.469 88.533,371.265 		"/>
		<path style="fill:none;stroke:#407BFF;stroke-miterlimit:10;" d="M94.553,392.425c0,0,4.055-5.082,5.711-3.883
			C101.919,389.741,94.553,392.425,94.553,392.425z"/>
		<path style="fill:none;stroke:#407BFF;stroke-miterlimit:10;" d="M95.288,392.425c0,0,7.03-1.656,7.297,0.617
			C102.853,395.315,95.288,392.425,95.288,392.425z"/>
		<path style="fill:#263238;" d="M93.7,387.018l-7.525-4.225c-1.096-0.615-2.483-0.226-3.098,0.87l-3.386,6.03
			c-0.615,1.096-0.226,2.483,0.87,3.098l21.371,11.999c1.096,0.615,2.483,0.226,3.098-0.87l0,0c0.545-0.971,0.31-2.19-0.558-2.887
			c-2.762-2.217-8.422-7.295-9.676-12.552C94.648,387.861,94.255,387.33,93.7,387.018z"/>
		<path style="fill:#263238;" d="M158.867,396.635h-9.988c-1.454,0-2.633,1.179-2.633,2.633v8.003c0,1.454,1.179,2.633,2.633,2.633
			h28.365c1.454,0,2.633-1.179,2.633-2.633l0,0c0-1.288-0.928-2.385-2.199-2.597c-4.044-0.673-12.633-2.59-16.876-7.184
			C160.302,396.949,159.604,396.635,158.867,396.635z"/>
		<path style="fill:#CE7A63;" d="M132.475,212.115l-3.137,6.691l-5.548-0.793c-5.231,0.834-7.409-2.136-7.409-2.136
			c-1.143-1.035-2.244-2.044-3.287-3.02l6.107-7.008c0.592,0.918,0.943,1.46,0.943,1.46
			C130.172,208.769,132.475,212.115,132.475,212.115z"/>
		<polygon style="fill:#FFFFFF;" points="222.625,145.368 220.695,147.954 226.372,152.907 228.039,150.632 		"/>
		<polygon style="fill:#FFFFFF;" points="112.836,213.161 119.389,205.499 117.18,202.69 110.336,210.917 		"/>
	</g>
</g>
<g id="Character_2">
	<g>
		<path style="fill:#263238;" d="M238.593,97.755c0,0-2.429,6.277,1.456,12.161c3.885,5.884,3.045-13.555,3.045-13.555
			L238.593,97.755z"/>
		<path style="fill:#FFB573;" d="M246.539,141.839c0,0-23.984,33.604-28.69,32.192c-4.706-1.412-15.502-22.374-15.502-22.374
			l-0.627-8.286l-7.084-9.754l-9.049,7.107l4.366,8.109c0,0,1.294,4.207,5.134,5.392c0,0,8.837,27.101,20.024,32.194
			s26.668-27.211,26.668-27.211L246.539,141.839z"/>
		<path style="fill:#263238;" d="M297.921,386.686l-12.391,4.709c-15.97-35.135-29.003-137.62-29.003-137.62
			s-0.373,2.874-0.943,7.495c-1.865,15.297-5.798,49.693-5.038,62.007c1.272,20.708-2.385,71.895-2.385,71.895l-15.048,1.777
			c0,0,0.506-50.588-1.629-78.623c-2.128-28.035,4.409-99.949,4.409-99.949l41.372-1.901c7.1,8.168,8.87,108.592,10.646,117.82
			C289.687,343.525,297.921,386.686,297.921,386.686z"/>
		<path style="fill:#407BFF;" d="M231.893,146.85c0.201-1.114,0.849-2.091,1.79-2.719c3.352-2.237,11.933-7.826,14.249-8.004
			c2.898-0.223,18.055-3.789,24.073,0c6.018,3.789,9.807,14.934,9.807,14.934s-0.446,51.489-3.121,68.206l-42.796-0.892
			C235.895,218.376,229.172,161.936,231.893,146.85z"/>
		<path style="fill:#FFB573;" d="M279.806,165.55l6.687,12.259c0,0,0.891,27.639-1.337,34.772l-3.343,6.687v10.699l8.024,1.115
			l2.229-8.47c0,0,1.337-6.241,0-8.916c0,0,9.362-21.398,6.018-39.898c0,0-16.89-37.24-27.252-38.271
			C260.47,134.494,279.806,165.55,279.806,165.55z"/>
		<path style="fill:#FFB573;" d="M266.168,135.615c0,0-6.61,6.373-12.635,6.198c-6.033-0.175-4.387-5.32-4.387-5.32
			c3.1-0.578,4.117-3.678,4.402-6.34c0.234-2.15-0.015-4.014-0.015-4.014s-7.195,0-11.231-8.775c-4.036-8.774,0-20.357,0-20.357
			s15.268-3.861,22.112-1.93c6.844,1.93,1.404,19.129,1.404,19.129C264.062,123.857,266.168,135.615,266.168,135.615z"/>
		<path style="fill:#263238;" d="M252.766,106.172c0,0.691-0.374,1.252-0.835,1.252s-0.835-0.561-0.835-1.252
			c0-0.692,0.374-1.252,0.835-1.252S252.766,105.48,252.766,106.172z"/>
		<path style="fill:#263238;" d="M244.252,106.968c0,0.692-0.374,1.252-0.835,1.252s-0.835-0.561-0.835-1.252
			c0-0.691,0.374-1.252,0.835-1.252S244.252,106.277,244.252,106.968z"/>
		<path style="fill:#ED893E;" d="M247.066,107.598l0.042,6.71c0,0-1.929,0.629-3.104-0.923L247.066,107.598z"/>
		<path style="fill:none;stroke:#263238;stroke-linecap:round;stroke-linejoin:round;stroke-miterlimit:10;" d="M249.918,115.482
			c0,0,3.565,0,4.865-2.936"/>
		<path style="fill:none;stroke:#263238;stroke-linecap:round;stroke-linejoin:round;stroke-miterlimit:10;" d="M251.096,101.349
			c0,0,3.1-0.252,4.022,1.678"/>
		<path style="fill:none;stroke:#263238;stroke-linecap:round;stroke-linejoin:round;stroke-miterlimit:10;" d="M240.509,103.711
			c0,0,0.601-1.881,2.908-2.373"/>
		<path style="opacity:0.2;" d="M258.987,125.078c0,0-2.362,3.561-5.44,5.075c0.234-2.15-0.015-4.014-0.015-4.014
			S256.611,126.197,258.987,125.078z"/>
		<polygon style="fill:#263238;" points="251.754,142.018 255.381,141.678 256.398,149.262 254.512,152.726 252.355,152.726 
			250.327,148.97 		"/>
		<path style="fill:#FFFFFF;" d="M265.729,132.559c0,0-5.208,5.471-12.196,9.254l2.153,5.359c0,0,9.067-1.566,12.945-12.314
			L265.729,132.559z"/>
		<path style="fill:#FFFFFF;" d="M253.532,141.813l-2.436,5.359c0,0-3.678-3.629-4.557-10.64l4.557-2.914
			C251.096,133.617,251.274,138.87,253.532,141.813z"/>
		<polygon style="fill:#263238;" points="252.509,150.733 250.036,182.781 254.187,187.817 258.024,182.464 254.277,150.733 		"/>
		<path style="fill:#263238;" d="M268.916,109.395c0,0-8.757,1.068-10.208-11.629c0,0-15.424,4.614-21.001-0.12
			c-5.577-4.734-1.046-10.875-1.046-10.875s0.866,2.175,1.711,3.454l0.002-3.966c0,0,2.306,2.943,3.085,3.454
			c0,0,6.362,1.448,13.05-2.518c6.688-3.966,15.202,3.593,13.633,9.445C268.142,96.641,275.68,102.524,268.916,109.395z"/>
		<path style="fill:#FFB573;" d="M262.91,109.758c0,0,2.356-8.364,6.244-5.419c3.888,2.945-1.649,11.191-4.359,10.72
			C262.086,114.588,262.91,109.758,262.91,109.758z"/>
		<path style="fill:#407BFF;" d="M194.873,156.001l8.441-4.657c0,0,9.064,17.518,14.322,19.718c0,0,10.69-10.786,14.212-24.306
			l4.789,22.52c0,0-8.29,17.516-18.769,17.766C207.389,187.292,198.802,167.353,194.873,156.001z"/>
		<path style="fill:#407BFF;" d="M273.808,158.585l12.717,20.37l-2.11,31.624l9.567,1.872c0,0,7.371-21.985,4.102-38.653
			c-2.371-12.089-9.862-27.422-18.554-34.75c-3.292-2.775-8.094-4.252-10.899-4.19c0,0-2.351,5.426-2.226,10.002
			C266.529,149.434,273.808,158.585,273.808,158.585z"/>
		<path style="opacity:0.2;" d="M281.469,170.856c0,0-8.323-13.331-7.661-12.272c0.661,1.059,7.661,22.279,7.661,22.279V170.856z"/>
		<path style="opacity:0.2;" d="M256.527,253.776c0,0-0.373,2.874-0.943,7.495l-2.047-24.32L256.527,253.776z"/>
		<g>
			<polygon style="fill:#FFB573;" points="292.767,401.838 300.529,398.229 298.297,392.136 296.667,387.692 289.993,389.639 
				288.747,390.205 290.663,395.748 			"/>
			<polygon style="opacity:0.2;" points="290.663,395.748 298.297,392.136 296.667,387.692 289.993,389.639 288.747,390.205 			"/>
			<path style="fill:none;stroke:#407BFF;stroke-miterlimit:10;" d="M291.189,402.857c0,0-5.817-6.76-7.574-5.147
				C281.857,399.324,291.189,402.857,291.189,402.857z"/>
			<path style="fill:none;stroke:#407BFF;stroke-miterlimit:10;" d="M290.736,403.04c0,0-5.555-2.198-6.572-0.056
				C283.147,405.126,290.736,403.04,290.736,403.04z"/>
			<path style="fill:#263238;" d="M292.267,398.496l8.116-3.278c1.182-0.477,2.527,0.094,3.004,1.275l2.627,6.503
				c0.477,1.182-0.094,2.527-1.276,3.004l-23.05,9.31c-1.182,0.477-2.527-0.094-3.004-1.275l0,0
				c-0.423-1.047-0.029-2.243,0.935-2.832c3.065-1.874,9.416-6.251,11.356-11.377C291.205,399.222,291.668,398.738,292.267,398.496z
				"/>
		</g>
		<g>
			<polygon style="fill:#FFB573;" points="236.066,409.493 244.622,409.278 245.004,402.8 245.282,398.075 238.385,397.199 
				237.017,397.222 236.563,403.069 			"/>
			<polygon style="opacity:0.2;" points="236.563,403.069 245.004,402.8 245.282,398.075 238.385,397.199 237.017,397.222 			"/>
			<path style="fill:none;stroke:#407BFF;stroke-miterlimit:10;" d="M234.211,409.798c0,0-2.639-8.518-4.894-7.739
				S234.211,409.798,234.211,409.798z"/>
			<path style="fill:none;stroke:#407BFF;stroke-miterlimit:10;" d="M233.723,409.785c0,0-4.218-4.23-6.005-2.671
				C225.931,408.673,233.723,409.785,233.723,409.785z"/>
			<path style="fill:#263238;" d="M236.939,406.229l8.75,0.229c1.274,0.033,2.28,1.093,2.247,2.367l-0.184,7.011
				c-0.033,1.274-1.093,2.28-2.367,2.246l-24.85-0.652c-1.274-0.034-2.28-1.093-2.246-2.367l0,0c0.03-1.129,0.868-2.069,1.986-2.224
				c3.558-0.497,11.127-1.979,14.95-5.906C235.675,406.471,236.293,406.212,236.939,406.229z"/>
		</g>
		<polygon style="fill:#407BFF;" points="285.263,394.883 280.967,387.412 299.645,380.501 300.952,390.401 		"/>
		<polygon style="fill:#407BFF;" points="231.108,390.341 231.108,400.004 250.703,400.004 251.45,390.341 		"/>
	</g>
</g>
<g id="Character_3">
	<g>
		<path style="fill:#FF8B7B;" d="M335.682,154.219c0,0-5.679,22.4-11.673,29.341c0,0-10.884-10.884-14.197-20.349
			c0,0-0.315-4.417-3.47-6.31l-4.732-6.468l-7.887,2.839l1.893,6.31l8.203,4.575c0,0,10.411,28.71,19.876,28.552
			c9.465-0.158,13.724-12.777,13.724-12.777l5.206-26.974L335.682,154.219z"/>
		<path style="fill:#263238;" d="M303.968,166.846l5.844-3.635c0,0,9.936,16.243,14.59,19.499c0,0,5.789-10.56,7.771-19.249
			c1.982-8.689,3.826-13.978,3.826-13.978l6.624,9.589c0,0-4.357,30.539-13.35,33.638c-8.994,3.099-14.091-5.687-16.142-9.146
			C311.08,180.104,303.968,166.846,303.968,166.846z"/>
		<path style="fill:#FF8B7B;" d="M354.053,386.686c0,0.369,6.025,8.853,6.025,8.853l6.278-8.115l-6.77-9.591L354.053,386.686z"/>
		<path style="fill:#263238;" d="M357.215,392.297l6.508-7.044c0.948-1.026,2.547-1.089,3.573-0.141l5.645,5.215
			c1.026,0.948,1.089,2.547,0.141,3.573L354.6,413.905c-0.948,1.026-2.547,1.089-3.573,0.141l0,0
			c-0.909-0.839-1.077-2.209-0.398-3.243c2.16-3.29,6.405-10.598,5.93-16.584C356.502,393.513,356.735,392.817,357.215,392.297z"/>
		<polygon style="fill:#407BFF;" points="340.584,382.749 358.818,366.75 365.527,380.684 353.055,391.522 		"/>
		<path style="fill:#263238;" d="M333.908,201.453c0,0-19.67,85.862-19.983,106.469s17.63,56.332,29.037,73.061l15.299-12.177
			l-22.17-54.015l10.288-67.241l11.882,136.243l14.675,1.873c0,0,1.873-51.518,0-70.251c-1.873-18.734,8.534-82.428,0.833-106.781
			L333.908,201.453z"/>
		<path style="fill:#407BFF;" d="M373.768,208.635c0,0,3.347-31.944,9.78-44.453l2.502-14.475c0,0-4.646-5.719-15.19-5.54
			c-10.544,0.179-15.183-1.035-15.183-1.035s-13.767-0.93-16.984,2.108c-3.217,3.038-3.395,16.798-3.931,23.411
			c-0.536,6.612-1.804,36.997-1.804,36.997L373.768,208.635z"/>
		<path style="fill:#263238;" d="M372.843,143.111c0,0-15.868,18.55-12.865,65.524l18.524,3.176l-2.463-19.481l11.873-35.615
			C387.911,156.716,390.359,145.635,372.843,143.111z"/>
		<path style="fill:#263238;" d="M354.78,143.111c0,0-17.056,12.456-18.367,60.27l-8.938,0.254l7.314-38.245
			c0,0-2.124-4.909-0.475-10.769c0.968-3.44,2.076-7.478,4.379-9.382C342.353,142.212,348.177,142.468,354.78,143.111z"/>
		<path style="fill:#FF8B7B;" d="M375.682,154.327c0,0,10.617,25.782,7.976,36.214c0,0-18.317-4.714-26.766-12.902
			c0,0-2.652-4.468-6.957-4.795l-8.364-4.298l-6.782,7.124l5.302,5.624l11.009,0.488c0,0,26.011,24.646,35.858,19.506
			c4.615-2.409,6.592-7.09,7.389-11.383c0.782-4.212,0.484-8.554-0.675-12.678l-7.082-25.216L375.682,154.327z"/>
		<path style="fill:#263238;" d="M350.395,184.243l7.241-8.427c0,0,16.081,12.401,26.021,14.725c0,0-1.319-13.619-3.996-25.215
			l-4.978-8.61l0.453-3.62l12.121-1.562c0,0,11,30.743,8.083,41.826c-2.918,11.083-9.19,12.179-19.75,8.093
			C365.029,197.368,350.395,184.243,350.395,184.243z"/>
		<polygon style="fill:#FF8B7B;" points="373.092,407.962 363.022,407.962 362.437,399.582 362.149,395.392 361.98,392.973 
			373.085,393.902 373.085,399.582 		"/>
		<path style="fill:#263238;" d="M362.586,404.213h9.59c1.397,0,2.529,1.132,2.529,2.529v7.685c0,1.396-1.132,2.529-2.529,2.529
			H344.94c-1.397,0-2.529-1.132-2.529-2.529l0,0c0-1.237,0.891-2.29,2.112-2.494c3.883-0.646,12.131-2.487,16.205-6.898
			C361.208,404.514,361.878,404.213,362.586,404.213z"/>
		<path style="opacity:0.1;fill:#FFFFFF;" d="M372.843,143.111c0,0-2.194,2.651-4.605,7.792c-2.71,5.781-5.74,14.633-7.132,24.913
			l11.737-9.492l-2.553-8.172l14.269-10.364C384.559,147.787,380.834,143.96,372.843,143.111z"/>
		<path style="opacity:0.1;fill:#FFFFFF;" d="M340.935,169.362c0,0,5.654-20.149,13.845-26.251c0,0-9.71-1.352-14.181,0.921
			l1.02,14.119l-4.17,1.312L340.935,169.362z"/>
		<path style="fill:#263238;" d="M384.756,109.748c1.926,4.808-0.14,10.22,0.049,15.395c0.086,2.355,0.646,4.676,0.703,7.033
			c0.057,2.356-0.483,4.886-2.204,6.497c-1.563,1.462-3.793,1.908-5.898,2.293c-3.271,0.598-6.834,1.156-9.772-0.401
			c-0.68-0.36-1.304-0.825-2.01-1.128c-1.404-0.602-2.997-0.511-4.52-0.383c-1.523,0.128-3.099,0.276-4.542-0.225
			c-4.687-1.628-1.463-8.064-0.661-11.372c1.225-5.05,2.451-10.1,3.676-15.15c5.055-1.026,10.064-2.391,15.119-3.417
			c1.679-0.341,3.433-0.679,5.083-0.221C381.374,109.11,383.182,110.258,384.756,109.748z"/>
		<path style="fill:#263238;" d="M384.886,119.687c-0.585,1.57-1.434,2.716-2.371,3.205c-1.178,0.617-1.354,1.715-1.258,3.044
			c0.216,3.028,1.843,7.243-3.765,9.646c-2.083,0.897-3.79,0.497-5.16-0.577c-3.942-3.1-5.191-11.825-5.191-11.825l-7.162-20.638
			v-0.008c0.024-0.04,0.056-0.08,0.088-0.128c0.024-0.032,0.04-0.072,0.064-0.104c0.024-0.04,0.056-0.08,0.088-0.112
			c0.176-0.24,0.457-0.593,0.833-0.993c0.2-0.232,0.441-0.473,0.713-0.737c2.604-2.419,7.988-5.512,15.727-0.353
			C386.015,105.787,386.728,114.784,384.886,119.687z"/>
		<path style="fill:#FF8B7B;" d="M385.302,121.426c0.088,2.396-2.115,3.765-4.046,4.511c-1.498,0.577-2.844,0.769-2.844,0.769
			c-1.763,2.932-5.576,4.983-5.576,4.983c-0.28,1.018-0.441,2.147-0.505,3.317c-0.176,2.908,0.184,6.041,0.513,8.116l-2.588,3.998
			c-10.744,4.919-14.581-3.99-14.581-3.99c3.942-0.417,5.208-3.733,5.576-6.505c0.272-2.075,0.032-3.846,0.032-3.846
			c-1.354-0.361-5.72-2.956-7.002-8.348c-1.274-5.376-0.232-10.439,1.987-15.414c0.889-1.987,1.987-3.878,3.213-5.664
			c0.08-0.12,0.273-0.441,0.497-0.809v-0.008c0.024-0.04,0.056-0.08,0.088-0.128c0.008-0.016,0.096-0.136,0.152-0.216
			c0.016-0.024,0.032-0.048,0.048-0.072c0.184-0.232,0.449-0.561,0.785-0.921c0.024-0.008,0.04-0.016,0.056-0.016l13.492-1.755
			l5.865,4.687l2.051,11.593l-2.988,3.573l-1.25,1.49l-0.305,0.361c0.128-0.112,0.256-0.224,0.385-0.328
			c2.379-1.971,5.424-3.028,6.529-1.114C385.126,120.112,385.278,120.689,385.302,121.426z"/>
		<path style="fill:#263238;" d="M367.084,112.768c-0.172,0.716-0.69,1.206-1.158,1.094c-0.468-0.112-0.708-0.784-0.536-1.5
			c0.172-0.716,0.69-1.206,1.158-1.094S367.255,112.052,367.084,112.768z"/>
		<path style="fill:#263238;" d="M359.399,110.702c-0.172,0.716-0.69,1.206-1.158,1.094c-0.468-0.112-0.708-0.784-0.536-1.5
			c0.172-0.716,0.69-1.206,1.158-1.094C359.33,109.314,359.57,109.986,359.399,110.702z"/>
		<path style="fill:#263238;" d="M366.666,111.317l-1.851-1.044C364.815,110.273,365.142,112.209,366.666,111.317z"/>
		<path style="fill:#263238;" d="M359.027,109.315l-1.851-1.044C357.176,108.271,357.502,110.206,359.027,109.315z"/>
		<path style="fill:#FF5652;" d="M361.283,111.552l-1.764,6.325c0,0-1.859,0.517-2.344-1.277L361.283,111.552z"/>
		<path style="fill:none;stroke:#263238;stroke-linecap:round;stroke-linejoin:round;stroke-miterlimit:10;" d="M361.661,122.283
			c0,0,4.366,0.644,5.619-3.006"/>
		<path style="fill:none;stroke:#263238;stroke-linecap:round;stroke-linejoin:round;stroke-miterlimit:10;" d="M367.137,107.813
			c0,0,2.577-1.421,4.223,1.442"/>
		<path style="fill:none;stroke:#263238;stroke-linecap:round;stroke-linejoin:round;stroke-miterlimit:10;" d="M361.049,105.195
			c0,0-2.398-1.611-4.044,1.074"/>
		<path style="fill:#263238;" d="M383.54,115.914l-5.184,4.887c-0.024-0.008-0.056-0.016-0.08-0.032
			c-8.661-2.74-6.914-18.771-6.914-18.771c-2.457,1.565-11.136,0.701-11.367,0.518c0.511-0.76,1.063-1.366,1.619-1.912
			c0.377-0.37,1.587-0.259,2.089-0.3c1.063-0.086,2.126-0.171,3.189-0.257c2.153-0.173,4.305-0.347,6.458-0.52
			c0.186-0.015,1.094-0.224,1.248-0.101c0.001,0.001,5.865,4.687,5.865,4.687L383.54,115.914z"/>
		<path style="opacity:0.2;" d="M365.698,133.467c0,0-1.747,2.428-4.447,3.157c0.272-2.075,0.032-3.846,0.032-3.846
			S363.471,133.523,365.698,133.467z"/>
		<polygon style="opacity:0.3;" points="344.171,261.982 345.276,233.428 346.382,247.553 		"/>
		<path style="opacity:0.1;" d="M373.085,394.871v4.711c-4.046-0.008-9.173-0.008-10.647,0l-0.288-4.19L373.085,394.871z"/>
		<polygon style="fill:#407BFF;" points="356.066,383.437 358.646,397.887 374.472,397.887 376.646,382.749 		"/>
	</g>
</g>
</svg>
